<?xml version="1.0" encoding="UTF-8" standalone="no"?>
<!DOCTYPE svg PUBLIC "-//W3C//DTD SVG 1.1//EN" "http://www.w3.org/Graphics/SVG/1.1/DTD/svg11.dtd">
<svg width="100%" height="100%" viewBox="0 0 3750 3750" version="1.1" xmlns="http://www.w3.org/2000/svg" xmlns:xlink="http://www.w3.org/1999/xlink" xml:space="preserve" xmlns:serif="http://www.serif.com/" style="fill-rule:evenodd;clip-rule:evenodd;stroke-linejoin:round;stroke-miterlimit:2;">
    <g transform="matrix(0.75,0,0,0.75,0,0)">
        <g id="Background" transform="matrix(5.9504,0,0,5.9504,-616.351,-541.938)">
            <path d="M943.04,219.515L943.04,802.916C943.04,873.35 885.856,930.535 815.421,930.535L232.021,930.535C161.586,930.535 104.402,873.35 104.402,802.916L104.402,219.515C104.402,149.081 161.586,91.896 232.021,91.896L815.421,91.896C885.856,91.896 943.04,149.081 943.04,219.515Z" style="fill:rgb(68,162,232);"/>
        </g>
        <g id="Fork" transform="matrix(6.39069,0,0,6.39069,-772.059,-754.677)">
            <g transform="matrix(1,0,0,0.895966,0,52.0019)">
                <path d="M500.664,238.15C500.664,231.167 505.743,225.498 512,225.498C518.257,225.498 523.336,231.167 523.336,238.15L523.336,516.928C523.336,523.911 518.257,529.581 512,529.581C505.743,529.581 500.664,523.911 500.664,516.928L500.664,238.15Z" style="fill:rgb(35,29,63);"/>
            </g>
            <g transform="matrix(1,0,0,0.929053,0,34.898)">
                <path d="M512,520.08L541.151,498.995L538.39,424.123L563.49,377.539L561.034,302.743L554.582,283.645C554.582,283.645 551.154,283.06 548.346,280.367C546.097,278.21 544.731,272.108 538.197,272.056C530.699,271.996 529.997,280.058 529.997,280.058L529.999,336.148C529.999,336.148 530.366,355.746 512,355.549C493.634,355.746 494.001,336.148 494.001,336.148L494.003,280.058C494.003,280.058 493.301,271.996 485.803,272.056C479.269,272.108 477.903,278.21 475.654,280.367C472.846,283.06 469.418,283.645 469.418,283.645L462.966,302.743L460.51,377.539L485.61,424.123L482.849,498.995L512,520.08Z" style="fill:white;"/>
                <clipPath id="_clip1">
                    <path d="M512,520.08L541.151,498.995L538.39,424.123L563.49,377.539L561.034,302.743L554.582,283.645C554.582,283.645 551.154,283.06 548.346,280.367C546.097,278.21 544.731,272.108 538.197,272.056C530.699,271.996 529.997,280.058 529.997,280.058L529.999,336.148C529.999,336.148 530.366,355.746 512,355.549C493.634,355.746 494.001,336.148 494.001,336.148L494.003,280.058C494.003,280.058 493.301,271.996 485.803,272.056C479.269,272.108 477.903,278.21 475.654,280.367C472.846,283.06 469.418,283.645 469.418,283.645L462.966,302.743L460.51,377.539L485.61,424.123L482.849,498.995L512,520.08Z"/>
                </clipPath>
                <g clip-path="url(#_clip1)">
                    <g transform="matrix(0.821918,0,0,1.89169,91.138,-402.959)">
                        <path d="M548.529,431.149L548.549,431.149L548.549,520.08L475.549,520.08L475.549,431.149L475.568,431.149C475.768,436.401 489.936,445.365 512.071,445.365C534.205,445.365 548.529,436.105 548.529,431.149Z" style="fill:rgb(186,210,234);"/>
                    </g>
                </g>
            </g>
            <g transform="matrix(1,0,0,0.929053,3.71752,34.898)">
                <path d="M445.998,237.995C446.078,231.261 451.221,225.864 457.478,225.949C463.734,226.035 468.749,231.572 468.669,238.306C468.216,276.616 467.256,353.236 470.361,382.315C470.571,384.29 471.899,385.821 473.121,387.471C474.789,389.721 476.67,391.901 478.42,394.129C482.841,399.757 486.34,405.795 487.351,412.561C490.506,433.67 488.914,507.682 488.914,507.682C488.759,514.414 483.556,519.745 477.301,519.579C471.046,519.413 466.093,513.812 466.248,507.079C466.248,507.079 467.972,436.551 464.966,416.437C464.65,414.317 463.214,412.651 461.869,410.874C460.13,408.575 458.203,406.341 456.434,404.057C451.963,398.282 448.58,392.071 447.836,385.101C444.665,355.397 445.536,277.129 445.998,237.995ZM547.661,238.758C547.581,232.024 552.596,226.488 558.852,226.402C565.108,226.316 570.252,231.714 570.332,238.448C570.795,277.582 571.666,355.85 568.492,385.555C567.747,392.526 564.361,398.738 559.884,404.514C558.114,406.798 556.185,409.032 554.443,411.331C553.098,413.108 551.661,414.772 551.344,416.891C548.335,437.005 550.062,507.532 550.062,507.532C550.216,514.264 545.264,519.865 539.009,520.032C532.754,520.198 527.551,514.867 527.396,508.135C527.396,508.135 525.802,434.121 528.96,413.011C529.972,406.245 533.475,400.206 537.901,394.577C539.653,392.349 541.536,390.169 543.205,387.919C544.428,386.27 545.757,384.74 545.968,382.766C549.075,353.688 548.114,277.068 547.661,238.758Z" style="fill:rgb(35,29,63);"/>
            </g>
            <g transform="matrix(0.983849,0,0,0.995219,8.26969,11.6435)">
                <path d="M459.824,599.543C427.965,569.722 362.283,507.255 331.504,470.8C330.742,469.897 320.093,458.301 319.613,434.866C319.017,405.749 319.858,264.704 319.858,264.704C320.023,237.346 342.625,215.267 370.299,215.431C397.974,215.594 420.308,237.938 420.142,265.296C420.142,265.296 419.466,375.816 419.736,420.032C445.375,448.172 484.168,485.61 512.004,511.887C539.848,485.61 578.653,448.17 604.3,420.029C604.57,375.81 603.894,265.296 603.894,265.296C603.728,237.938 626.062,215.594 653.736,215.431C681.411,215.267 704.013,237.346 704.178,264.704C704.178,264.704 705.019,405.749 704.423,434.867C703.942,458.305 693.29,469.902 692.528,470.805C661.742,507.26 596.043,569.726 564.176,599.547L564.176,735.766C564.176,764.233 540.797,787.346 512,787.346C483.203,787.346 459.824,764.233 459.824,735.766L459.824,599.543Z" style="fill-opacity:0.2;"/>
            </g>
            <g transform="matrix(0.983849,0,0,0.995219,8.26969,1.64349)">
                <path d="M459.146,595.219C426.5,564.61 363.513,504.531 333.585,469.083C332.858,468.223 322.781,457.148 322.323,434.812C321.727,405.707 322.568,264.72 322.568,264.72C322.724,238.841 344.105,217.955 370.283,218.11C396.462,218.265 417.588,239.401 417.432,265.28C417.432,265.28 416.745,377.512 417.033,421.065C443.291,449.976 483.779,488.978 512.004,515.587C540.237,488.978 580.736,449.974 607.003,421.062C607.291,377.506 606.604,265.28 606.604,265.28C606.448,239.401 627.574,218.265 653.753,218.11C679.931,217.955 701.312,238.841 701.468,264.72C701.468,264.72 702.309,405.707 701.713,434.812C701.255,457.151 691.174,468.227 690.448,469.087C660.511,504.535 597.508,564.616 564.854,595.224L564.854,733.205C564.854,762.042 541.171,785.455 512,785.455C482.829,785.455 459.146,762.042 459.146,733.205L459.146,595.219Z" style="fill:rgb(35,29,63);"/>
            </g>
            <g transform="matrix(0.788335,0,0,0.684787,108.372,181.098)">
                <path d="M478.174,589.591C443.177,551.659 353.309,453.033 312.786,397.14C312.282,396.445 306.138,387.199 305.82,369.153C305.079,327.012 306.131,122.876 306.131,122.876C306.226,104.671 319.141,89.98 334.954,90.089C350.768,90.197 363.529,105.065 363.435,123.27C363.435,123.27 362.443,313.239 363.048,363.331C402.553,415.674 476.791,497.459 512.003,535.68C547.222,497.461 621.481,415.673 660.998,363.329C661.602,313.233 660.611,123.27 660.611,123.27C660.516,105.065 673.278,90.197 689.091,90.089C704.905,89.98 717.82,104.671 717.914,122.876C717.914,122.876 718.967,327.012 718.225,369.153C717.908,387.201 711.761,396.448 711.257,397.143C670.724,453.036 580.832,551.663 545.827,589.595L545.827,798.319C545.827,808.603 542.278,818.465 535.962,825.737C529.645,833.008 521.078,837.094 512.145,837.094L511.9,837.094C493.273,837.094 478.174,819.711 478.174,798.268L478.174,589.591Z" style="fill:white;"/>
                <clipPath id="_clip2">
                    <path d="M478.174,589.591C443.177,551.659 353.309,453.033 312.786,397.14C312.282,396.445 306.138,387.199 305.82,369.153C305.079,327.012 306.131,122.876 306.131,122.876C306.226,104.671 319.141,89.98 334.954,90.089C350.768,90.197 363.529,105.065 363.435,123.27C363.435,123.27 362.443,313.239 363.048,363.331C402.553,415.674 476.791,497.459 512.003,535.68C547.222,497.461 621.481,415.673 660.998,363.329C661.602,313.233 660.611,123.27 660.611,123.27C660.516,105.065 673.278,90.197 689.091,90.089C704.905,89.98 717.82,104.671 717.914,122.876C717.914,122.876 718.967,327.012 718.225,369.153C717.908,387.201 711.761,396.448 711.257,397.143C670.724,453.036 580.832,551.663 545.827,589.595L545.827,798.319C545.827,808.603 542.278,818.465 535.962,825.737C529.645,833.008 521.078,837.094 512.145,837.094L511.9,837.094C493.273,837.094 478.174,819.711 478.174,798.268L478.174,589.591Z"/>
                </clipPath>
                <g clip-path="url(#_clip2)">
                    <g transform="matrix(1.29121,0,0,2.07936,-149.164,-214.257)">
                        <path d="M548.529,431.149L548.549,431.149L548.549,520.08L475.549,520.08L475.549,431.149L475.568,431.149C475.768,436.401 489.936,445.365 512.071,445.365C534.205,445.365 548.529,436.105 548.529,431.149Z" style="fill:rgb(186,210,234);"/>
                    </g>
                </g>
            </g>
        </g>
        <g id="Accents" transform="matrix(6.57884,0,0,6.57884,-868.469,-845.578)">
            <g transform="matrix(1,0,0,1,-25.4661,7)">
                <path d="M284.644,713.141C291.542,713.141 297.144,718.742 297.144,725.641C297.144,732.54 291.542,738.141 284.644,738.141C277.745,738.141 272.144,732.54 272.144,725.641C272.144,718.742 277.745,713.141 284.644,713.141ZM347.564,721.006C354.463,721.006 360.064,726.607 360.064,733.506C360.064,740.405 354.463,746.006 347.564,746.006C340.665,746.006 335.064,740.405 335.064,733.506C335.064,726.607 340.665,721.006 347.564,721.006ZM283.318,343.686C290.216,343.686 295.818,349.287 295.818,356.186C295.818,363.085 290.216,368.686 283.318,368.686C276.419,368.686 270.818,363.085 270.818,356.186C270.818,349.287 276.419,343.686 283.318,343.686Z" style="fill-opacity:0.2;"/>
            </g>
            <g transform="matrix(1,0,0,1,-22.4661,0)">
                <path d="M284.644,713.141C291.542,713.141 297.144,718.742 297.144,725.641C297.144,732.54 291.542,738.141 284.644,738.141C277.745,738.141 272.144,732.54 272.144,725.641C272.144,718.742 277.745,713.141 284.644,713.141ZM347.564,721.006C354.463,721.006 360.064,726.607 360.064,733.506C360.064,740.405 354.463,746.006 347.564,746.006C340.665,746.006 335.064,740.405 335.064,733.506C335.064,726.607 340.665,721.006 347.564,721.006ZM283.318,343.686C290.216,343.686 295.818,349.287 295.818,356.186C295.818,363.085 290.216,368.686 283.318,368.686C276.419,368.686 270.818,363.085 270.818,356.186C270.818,349.287 276.419,343.686 283.318,343.686Z" style="fill:rgb(35,29,63);"/>
            </g>
            <g transform="matrix(1,0,0,1,-25.4661,8.11037)">
                <path d="M290.967,653.386C285.161,656.876 277.614,654.996 274.124,649.19C270.634,643.384 272.514,635.837 278.32,632.347L310.134,613.224C315.94,609.734 323.487,611.614 326.977,617.42C330.467,623.226 328.587,630.773 322.781,634.263L290.967,653.386Z" style="fill-opacity:0.2;"/>
            </g>
            <g transform="matrix(1,0,0,1,-22.4661,1.11037)">
                <path d="M290.967,653.386C285.161,656.876 277.614,654.996 274.124,649.19C270.634,643.384 272.514,635.837 278.32,632.347L310.134,613.224C315.94,609.734 323.487,611.614 326.977,617.42C330.467,623.226 328.587,630.773 322.781,634.263L290.967,653.386Z" style="fill:rgb(35,29,63);"/>
            </g>
            <g transform="matrix(-1,0,0,1,1050.16,8)">
                <path d="M284.644,713.141C291.542,713.141 297.144,718.742 297.144,725.641C297.144,732.54 291.542,738.141 284.644,738.141C277.745,738.141 272.144,732.54 272.144,725.641C272.144,718.742 277.745,713.141 284.644,713.141ZM347.564,721.006C354.463,721.006 360.064,726.607 360.064,733.506C360.064,740.405 354.463,746.006 347.564,746.006C340.665,746.006 335.064,740.405 335.064,733.506C335.064,726.607 340.665,721.006 347.564,721.006ZM283.318,343.686C290.216,343.686 295.818,349.287 295.818,356.186C295.818,363.085 290.216,368.686 283.318,368.686C276.419,368.686 270.818,363.085 270.818,356.186C270.818,349.287 276.419,343.686 283.318,343.686Z" style="fill-opacity:0.2;"/>
            </g>
            <g transform="matrix(-1,0,0,1,1047.16,0)">
                <path d="M284.644,713.141C291.542,713.141 297.144,718.742 297.144,725.641C297.144,732.54 291.542,738.141 284.644,738.141C277.745,738.141 272.144,732.54 272.144,725.641C272.144,718.742 277.745,713.141 284.644,713.141ZM347.564,721.006C354.463,721.006 360.064,726.607 360.064,733.506C360.064,740.405 354.463,746.006 347.564,746.006C340.665,746.006 335.064,740.405 335.064,733.506C335.064,726.607 340.665,721.006 347.564,721.006ZM283.318,343.686C290.216,343.686 295.818,349.287 295.818,356.186C295.818,363.085 290.216,368.686 283.318,368.686C276.419,368.686 270.818,363.085 270.818,356.186C270.818,349.287 276.419,343.686 283.318,343.686Z" style="fill:rgb(35,29,63);"/>
            </g>
            <g transform="matrix(-1,0,0,1,1051.17,8.11037)">
                <path d="M278.32,632.347C272.514,635.837 270.634,643.384 274.124,649.19C277.614,654.996 285.161,656.876 290.967,653.386L322.781,634.263C328.587,630.773 330.467,623.226 326.977,617.42C323.487,611.614 315.94,609.734 310.134,613.224L278.32,632.347Z" style="fill-opacity:0.2;"/>
            </g>
            <g transform="matrix(-1,0,0,1,1048.17,1.11037)">
                <path d="M278.32,632.347C272.514,635.837 270.634,643.384 274.124,649.19C277.614,654.996 285.161,656.876 290.967,653.386L322.781,634.263C328.587,630.773 330.467,623.226 326.977,617.42C323.487,611.614 315.94,609.734 310.134,613.224L278.32,632.347Z" style="fill:rgb(35,29,63);"/>
            </g>
        </g>
    </g>
</svg>
